<?xml version="1.0" encoding="utf-8"?>
<!-- Generator: Adobe Illustrator 16.0.0, SVG Export Plug-In . SVG Version: 6.00 Build 0)  -->
<!DOCTYPE svg PUBLIC "-//W3C//DTD SVG 1.1//EN" "http://www.w3.org/Graphics/SVG/1.1/DTD/svg11.dtd">
<svg version="1.1" id="Layer_3" xmlns="http://www.w3.org/2000/svg" xmlns:xlink="http://www.w3.org/1999/xlink" x="0px" y="0px"
	 width="142.333px" height="142.596px" viewBox="0 0 142.333 142.596" enable-background="new 0 0 142.333 142.596"
	 xml:space="preserve">
<g>
	<path fill="#FFFFFF" d="M111.948,12.83c0.058,0.141,0.111,0.273,0.168,0.417c3.602,9.888,7.248,19.754,10.947,29.605
		c0.445,1.188,0.666,1.78,1.114,2.969c0.101,0.274,0.149,0.412,0.249,0.686c0.055,0.167,0.084,0.25,0.139,0.416
		c0.111,0.336,0.164,0.506,0.275,0.842c0.451,1.382,0.681,2.072,1.134,3.456c0.528,1.64,0.909,2.815,1.31,4.053
		c4.041-1.196,7.992-1.91,11.615-0.769c-2.912,2.773-6.181,4.794-9.73,6.604c1.271,3.986,2.511,7.947,3.609,11.607
		c2.471,7.525,3.885,12.491,4.471,15.434c0.146,0.733,0.248,1.348,0.297,1.829c0.029,0.263,0.044,0.394,0.072,0.655
		c0.006,0.18,0.094,0.398,0.078,0.329c-0.07,0.523-0.436,0.865-1.063,0.807c-0.146,0.248-0.396,0.193-0.607,0.132
		c-0.221-0.065-0.443-0.171-0.684-0.311c-0.491-0.304-0.969-0.662-1.475-1.101c-1.002-0.873-2.094-2.048-3.25-3.47
		c-2.313-2.845-4.894-6.674-7.479-10.965c0.154,0.659-2.227-3.509-5.409-9.461c-1.489,0.679-3.054,1.388-4.629,2.101
		c-5.462,2.457-10.954,4.97-13.61,6.193c-0.947,1.923-1.916,3.833-2.918,5.728c-4.436,8.401-9.396,16.524-14.832,24.316
		c-5.32,7.631-10.871,14.567-15.941,20.345c-4.449,5.079-9.126,9.971-14.023,14.624c6.168,1.74,12.665,2.69,19.391,2.69
		c39.375,0,71.297-31.921,71.297-71.299C142.461,47.09,130.39,25.718,111.948,12.83z"/>
	<path fill="#FFFFFF" d="M50.862,114.364c4.717-5.289,9.897-11.65,14.898-18.659c2.174-3.048,4.254-6.162,6.27-9.316
		c-1.42,0.625-2.861,1.261-4.342,1.923c-3.873,1.728-7.938,3.587-12.16,5.545c-2.574,1.213-3.865,1.815-6.451,3.017
		c-1.563,0.744-2.346,1.113-3.916,1.853c-2.705,1.303-4.063,1.951-6.785,3.24c-1.379,0.665-2.068,0.998-3.45,1.66
		c-1.16,0.56-2.335,1.134-3.429,1.577c-0.67,0.286-1.004,0.428-1.676,0.714c-0.336,0.143-0.504,0.215-0.841,0.357
		c-0.166,0.071-0.25,0.105-0.417,0.175c-0.139,0.039-0.21,0.059-0.347,0.095c-1.104,0.305-1.655,0.454-2.761,0.754
		c-0.139,0.039-0.205,0.058-0.344,0.096c-0.102,0.019-0.168,0.011-0.252,0.02c-0.195,0.009-0.293,0.016-0.486,0.026
		c-0.391,0.018-0.584,0.026-0.975,0.045c-0.308,0.007-0.683,0.055-0.938,0.027c-0.26-0.022-0.502-0.056-0.734-0.096
		c-0.927-0.162-1.654-0.432-2.357-0.796c-0.351-0.19-0.69-0.398-1.084-0.708c-0.196-0.155-0.414-0.342-0.676-0.607
		c-0.265-0.271-0.545-0.624-0.722-0.884c-0.356-0.532-0.535-0.926-0.694-1.333c-0.146-0.401-0.256-0.794-0.322-1.214
		c-0.131-0.834-0.131-1.764,0.178-2.927c0.297-1.155,0.984-2.58,2.124-4.217c2.284-3.289,5.853-7.125,9.43-10.844
		c1.097-1.119,1.646-1.68,2.737-2.801c0.794-0.797,1.189-1.194,1.98-1.994c1.133-1.123,1.695-1.686,2.824-2.811
		c3.773-3.729,7.561-7.399,11.305-11.021C60.1,52.09,73.766,38.937,87.241,25.584c8.021-7.945,13.498-13.462,13.785-13.751
		c0.205-0.2,0.278-0.272,0.746-0.341c0.133-0.03,0.277-0.056,0.422-0.082c0.346-1.396,0.653-2.645,0.944-3.832
		c-9.619-4.836-20.474-7.575-31.976-7.575C31.788-0.001-0.13,31.919-0.13,71.295c0,25.41,13.301,47.7,33.313,60.326
		C39.429,126.247,45.358,120.501,50.862,114.364z"/>
	<path fill="#FFFFFF" d="M110.229,52.082c-0.038-0.073-0.031-0.037-0.048-0.061c-0.163-0.155-0.315-0.26-0.442-0.325
		c-0.252-0.13-0.418-0.088-0.523,0.036c-0.206,0.254-0.186,0.79-0.193,0.774c-0.544,1.466-0.816,2.197-1.363,3.662
		c-0.629,1.644-1.293,3.272-1.959,4.899c2.477-0.714,5.188-1.473,7.965-2.225c-0.506-0.984-1.017-1.98-1.521-2.98
		c-0.412-0.808-0.613-1.213-1.021-2.021c-0.203-0.402-0.31-0.604-0.512-1.008c-0.103-0.201-0.15-0.3-0.252-0.501
		C110.306,52.233,110.278,52.182,110.229,52.082z"/>
	<path fill="#FFFFFF" d="M51.993,82.558c4.375-2.013,8.6-3.917,12.629-5.697c4.031-1.778,7.867-3.431,11.461-4.945
		c2.084-0.862,3.125-1.296,5.201-2.167c0.176-0.07,0.34-0.137,0.496-0.201c3.36-6.478,6.284-12.929,8.685-18.947
		c0.418-1.065,0.627-1.598,1.044-2.662c0.213-0.566,0.318-0.849,0.533-1.414c0.392-1.073,0.593-1.61,0.981-2.684
		c1.009-2.816,1.917-5.586,2.778-8.344c-13.393,13.14-27.535,25.502-41.135,38.425C45.717,83.88,51.993,82.558,51.993,82.558z"/>
</g>
</svg>
